<svg xmlns="http://www.w3.org/2000/svg" version="1.1" xmlns:xlink="http://www.w3.org/1999/xlink" width="1000" height="1000"><style>
    #light-icon {
      display: inline;
    }
    #dark-icon {
      display: none;
    }

    @media (prefers-color-scheme: dark) {
      #light-icon {
        display: none;
      }
      #dark-icon {
        display: inline;
      }
    }
  </style><g id="light-icon"><svg xmlns="http://www.w3.org/2000/svg" version="1.1" xmlns:xlink="http://www.w3.org/1999/xlink" width="1000" height="1000"><g clip-path="url(#SvgjsClipPath1105)"><rect width="1000" height="1000" fill="#FFFCF7"></rect><g transform="matrix(5,0,0,5,150,150)"><svg xmlns="http://www.w3.org/2000/svg" version="1.1" xmlns:xlink="http://www.w3.org/1999/xlink" width="140" height="140"><svg id="a" xmlns="http://www.w3.org/2000/svg" viewBox="0 0 140 140"><rect x="-2" y="-2" width="144" height="144" style="fill:#FFFCF7;"></rect><path d="M69.99,124.94c-2.25,0-4.51.03-6.76-.03-.48-.01-1.08-.23-1.42-.56-9.12-9.08-18.21-18.18-27.33-27.26-.64-.63-.6-1.1-.12-1.77,2.51-3.52,4.99-7.06,7.49-10.59.35-.49.34-.89.04-1.4-1.14-1.94-2.24-3.91-3.38-5.85-.31-.53-.29-.97.02-1.5,3.41-5.9,6.82-11.8,10.19-17.72.25-.44.27-1.09.2-1.61-.09-.67-.29-1.37-.59-1.97-.61-1.23-.24-2.25.4-3.34,3.58-6.12,7.13-12.25,10.67-18.39,3.34-5.77,6.66-11.54,9.99-17.31.46-.8.65-.81,1.12,0,3.49,6.03,6.97,12.06,10.46,18.09,3.47,6,6.94,12.01,10.44,18,.51.88.8,1.67.29,2.68-.39.77-.6,1.64-.76,2.49-.08.42.02.97.23,1.35,2.56,4.49,5.16,8.95,7.75,13.42.84,1.45,1.65,2.93,2.52,4.36.31.51.29.92,0,1.41-1.14,1.94-2.24,3.91-3.41,5.83-.34.56-.32.95.04,1.46,2.43,3.43,4.85,6.87,7.27,10.31.92,1.3.92,1.3-.23,2.44-8.89,8.89-17.78,17.77-26.65,26.67-.55.55-1.1.82-1.89.8-2.19-.05-4.39-.02-6.58-.02ZM71.93,106.93c.06.01.13.02.19.03.81-2.67,1.6-5.34,2.42-8,1.47-4.79,2.97-9.58,4.44-14.37,1.94-6.34,3.86-12.69,5.8-19.03.97-3.18,1.94-6.37,2.93-9.55.18-.59.08-.93-.47-1.25-4.74-2.71-9.47-5.45-14.21-8.17-.31-.18-.67-.29-1.09-.47v60.8ZM67.91,46.09c-.46.2-.78.3-1.06.46-4.7,2.72-9.39,5.46-14.1,8.16-.58.33-.71.7-.52,1.31,1.16,3.79,2.3,7.58,3.45,11.37,1.49,4.88,2.98,9.75,4.48,14.63,1.09,3.53,2.19,7.05,3.27,10.58.97,3.18,1.92,6.38,2.89,9.56.49,1.62,1.01,3.23,1.59,5.08v-61.15ZM69.96,22.71c-5.04,8.71-9.93,17.18-14.82,25.65.05.06.1.12.15.18.26-.11.53-.2.77-.34,4.36-2.53,8.73-5.05,13.07-7.61.6-.35,1.07-.36,1.66-.01,3.75,2.2,7.52,4.38,11.29,6.56.88.51,1.76,1,2.64,1.51.04-.05.08-.11.12-.16-4.91-8.5-9.82-17.01-14.88-25.78ZM67.03,118.8s.09-.04.14-.06c-.06-.25-.1-.5-.18-.75-1.82-5.97-3.62-11.94-5.45-17.91-2.5-8.15-5.03-16.28-7.5-24.44-.28-.92-.56-.8-1.22-.41-2.34,1.4-4.72,2.75-7.09,4.1-1.15.65-1.17.67-.49,1.83,1.5,2.57,2.99,5.13,4.48,7.71,2.58,4.47,5.14,8.95,7.72,13.42,2.56,4.44,5.14,8.88,7.71,13.32.62,1.07,1.26,2.14,1.88,3.21ZM86.17,74.72c-4.51,14.73-8.97,29.31-13.44,43.89.07.03.14.06.21.09.93-1.6,1.85-3.2,2.77-4.8,2.82-4.88,5.64-9.76,8.46-14.65,1.71-2.96,3.43-5.92,5.14-8.88,1.85-3.2,3.68-6.4,5.53-9.59.34-.59.31-.97-.33-1.3-.75-.38-1.47-.81-2.2-1.23-2-1.15-3.99-2.3-6.16-3.55ZM95.37,87.96c-6.16,10.66-12.19,21.11-18.22,31.55.28-.04.43-.17.57-.32,2.02-2.02,4.04-4.04,6.05-6.05,4.2-4.21,8.4-8.41,12.61-12.62,1.32-1.32,2.63-2.64,3.95-3.95.46-.46.58-.85.12-1.47-1.03-1.36-1.94-2.82-2.93-4.22-.65-.93-1.34-1.82-2.15-2.93ZM62.34,119.18c.05-.05.11-.1.16-.15-5.96-10.33-11.93-20.65-17.94-31.06-.21.24-.3.32-.36.42-1.6,2.29-3.18,4.59-4.8,6.86-.36.51-.23.81.18,1.21,6.71,6.72,13.41,13.45,20.11,20.18.86.87,1.77,1.69,2.66,2.54ZM50.89,63.2c-.1-.01-.2-.02-.3-.03-2.45,4.24-4.9,8.48-7.46,12.92.4-.17.59-.23.76-.32,2.42-1.39,4.84-2.78,7.25-4.18,1.94-1.13,1.94-1.14,1.34-3.35-.02-.06-.02-.12-.03-.18-.52-1.62-1.04-3.24-1.55-4.86ZM96.51,76.02s.1-.09.15-.14c-2.46-4.29-4.93-8.58-7.5-13.05-.17.44-.26.65-.33.86-.44,1.47-.87,2.93-1.3,4.4-.7,2.34-.7,2.35,1.43,3.58,2.51,1.45,5.03,2.89,7.55,4.34Z" style="fill:#2d2b29;"></path></svg></svg></g></g><defs><clipPath id="SvgjsClipPath1105"><rect width="1000" height="1000" x="0" y="0" rx="0" ry="0"></rect></clipPath></defs></svg></g><g id="dark-icon"><svg xmlns="http://www.w3.org/2000/svg" version="1.1" xmlns:xlink="http://www.w3.org/1999/xlink" width="1000" height="1000"><g clip-path="url(#SvgjsClipPath1106)"><rect width="1000" height="1000" fill="#2d2b29"></rect><g transform="matrix(5,0,0,5,150,150)"><svg xmlns="http://www.w3.org/2000/svg" version="1.1" xmlns:xlink="http://www.w3.org/1999/xlink" width="140" height="140"><svg id="a" xmlns="http://www.w3.org/2000/svg" viewBox="0 0 140 140"><rect x="-2" y="-2" width="144" height="144" style="fill:#2d2b29;"></rect><path d="M69.99,124.94c-2.25,0-4.51.03-6.76-.03-.48-.01-1.08-.23-1.42-.56-9.12-9.08-18.21-18.18-27.33-27.26-.64-.63-.6-1.1-.12-1.77,2.51-3.52,4.99-7.06,7.49-10.59.35-.49.34-.89.04-1.4-1.14-1.94-2.24-3.91-3.38-5.85-.31-.53-.29-.97.02-1.5,3.41-5.9,6.82-11.8,10.19-17.72.25-.44.27-1.09.2-1.61-.09-.67-.29-1.37-.59-1.97-.61-1.23-.24-2.25.4-3.34,3.58-6.12,7.13-12.25,10.67-18.39,3.34-5.77,6.66-11.54,9.99-17.31.46-.8.65-.81,1.12,0,3.49,6.03,6.97,12.06,10.46,18.09,3.47,6,6.94,12.01,10.44,18,.51.88.8,1.67.29,2.68-.39.77-.6,1.64-.76,2.49-.08.42.02.97.23,1.35,2.56,4.49,5.16,8.95,7.75,13.42.84,1.45,1.65,2.93,2.52,4.36.31.51.29.92,0,1.41-1.14,1.94-2.24,3.91-3.41,5.83-.34.56-.32.95.04,1.46,2.43,3.43,4.85,6.87,7.27,10.31.92,1.3.92,1.3-.23,2.44-8.89,8.89-17.78,17.77-26.65,26.67-.55.55-1.1.82-1.89.8-2.19-.05-4.39-.02-6.58-.02ZM71.93,106.93c.06.01.13.02.19.03.81-2.67,1.6-5.34,2.42-8,1.47-4.79,2.97-9.58,4.44-14.37,1.94-6.34,3.86-12.69,5.8-19.03.97-3.18,1.94-6.37,2.93-9.55.18-.59.08-.93-.47-1.25-4.74-2.71-9.47-5.45-14.21-8.17-.31-.18-.67-.29-1.09-.47v60.8ZM67.91,46.09c-.46.2-.78.3-1.06.46-4.7,2.72-9.39,5.46-14.1,8.16-.58.33-.71.7-.52,1.31,1.16,3.79,2.3,7.58,3.45,11.37,1.49,4.88,2.98,9.75,4.48,14.63,1.09,3.53,2.19,7.05,3.27,10.58.97,3.18,1.92,6.38,2.89,9.56.49,1.62,1.01,3.23,1.59,5.08v-61.15ZM69.96,22.71c-5.04,8.71-9.93,17.18-14.82,25.65.05.06.1.12.15.18.26-.11.53-.2.77-.34,4.36-2.53,8.73-5.05,13.07-7.61.6-.35,1.07-.36,1.66-.01,3.75,2.2,7.52,4.38,11.29,6.56.88.51,1.76,1,2.64,1.51.04-.05.08-.11.12-.16-4.91-8.5-9.82-17.01-14.88-25.78ZM67.03,118.8s.09-.04.14-.06c-.06-.25-.1-.5-.18-.75-1.82-5.97-3.62-11.94-5.45-17.91-2.5-8.15-5.03-16.28-7.5-24.44-.28-.92-.56-.8-1.22-.41-2.34,1.4-4.72,2.75-7.09,4.1-1.15.65-1.17.67-.49,1.83,1.5,2.57,2.99,5.13,4.48,7.71,2.58,4.47,5.14,8.95,7.72,13.42,2.56,4.44,5.14,8.88,7.71,13.32.62,1.07,1.26,2.14,1.88,3.21ZM86.17,74.72c-4.51,14.73-8.97,29.31-13.44,43.89.07.03.14.06.21.09.93-1.6,1.85-3.2,2.77-4.8,2.82-4.88,5.64-9.76,8.46-14.65,1.71-2.96,3.43-5.92,5.14-8.88,1.85-3.2,3.68-6.4,5.53-9.59.34-.59.31-.97-.33-1.3-.75-.38-1.47-.81-2.2-1.23-2-1.15-3.99-2.3-6.16-3.55ZM95.37,87.96c-6.16,10.66-12.19,21.11-18.22,31.55.28-.04.43-.17.57-.32,2.02-2.02,4.04-4.04,6.05-6.05,4.2-4.21,8.4-8.41,12.61-12.62,1.32-1.32,2.63-2.64,3.95-3.95.46-.46.58-.85.12-1.47-1.03-1.36-1.94-2.82-2.93-4.22-.65-.93-1.34-1.82-2.15-2.93ZM62.34,119.18c.05-.05.11-.1.16-.15-5.96-10.33-11.93-20.65-17.94-31.06-.21.24-.3.32-.36.42-1.6,2.29-3.18,4.59-4.8,6.86-.36.51-.23.81.18,1.21,6.71,6.72,13.41,13.45,20.11,20.18.86.87,1.77,1.69,2.66,2.54ZM50.89,63.2c-.1-.01-.2-.02-.3-.03-2.45,4.24-4.9,8.48-7.46,12.92.4-.17.59-.23.76-.32,2.42-1.39,4.84-2.78,7.25-4.18,1.94-1.13,1.94-1.14,1.34-3.35-.02-.06-.02-.12-.03-.18-.52-1.62-1.04-3.24-1.55-4.86ZM96.51,76.02s.1-.09.15-.14c-2.46-4.29-4.93-8.58-7.5-13.05-.17.44-.26.65-.33.86-.44,1.47-.87,2.93-1.3,4.4-.7,2.34-.7,2.35,1.43,3.58,2.51,1.45,5.03,2.89,7.55,4.34Z" style="fill:#FFFCF7;"></path></svg></svg></g></g><defs><clipPath id="SvgjsClipPath1106"><rect width="1000" height="1000" x="0" y="0" rx="350" ry="350"></rect></clipPath></defs></svg></g></svg>