<?xml version="1.0" encoding="UTF-8"?>
<!-- Generator: Adobe Illustrator 15.0.2, SVG Export Plug-In . SVG Version: 6.00 Build 0)  -->
<svg xmlns="http://www.w3.org/2000/svg" xmlns:xlink="http://www.w3.org/1999/xlink" version="1.1" id="Layer_1" x="0px" y="0px" width="170.154px" height="84.436px" viewBox="9.527 12.522 170.154 84.436" xml:space="preserve">
<g>
	<g>
		<path fill="#505050" d="M73.169,12.522c0.675,0.344,1.416,0.599,2.009,1.048c0.989,0.753,1.248,1.926,1.465,3.083    c0.542,2.895,0.386,5.809,0.204,8.718c-0.164,2.617-0.348,5.233-0.576,7.846c-0.284,3.254-0.623,6.502-0.937,9.753    c-0.01,0.1-0.016,0.201,0.079,0.344c0.102-0.188,0.21-0.374,0.305-0.565c2.222-4.521,4.514-9.006,7.354-13.18    c0.864-1.269,1.849-2.463,2.86-3.62c0.845-0.969,1.942-1.628,3.161-2.057c1.923-0.678,3.631-0.195,4.918,1.381    c1.099,1.343,1.697,2.929,1.98,4.595c0.352,2.086,0.522,4.202,0.771,6.306c0.022,0.195,0.024,0.391,0.147,0.614    c0.103-0.192,0.199-0.387,0.305-0.576c1.785-3.266,3.55-6.542,5.363-9.79c1.491-2.673,3.854-4.448,6.435-5.951    c3.063-1.784,6.224-1.592,9.351-0.217c2.83,1.244,5.293,3.086,7.504,5.214c2.805,2.701,5.496,5.519,8.229,8.294    c3.522,3.574,7.345,6.745,11.698,9.296c6.11,3.583,12.264,3.67,18.391,0.298c2.833-1.559,5.471-3.489,8.113-5.369    c1.09-0.773,1.953-1.863,2.936-2.793c0.73-0.69,1.563-1.109,2.605-0.788c1.716,0.529,2.345,2.176,1.406,3.686    c-0.164,0.264-0.351,0.52-0.56,0.75c-5.217,5.763-11.646,9.606-19.128,11.528c-5.475,1.404-10.723,0.437-15.63-2.41    c-4.925-2.856-9.209-6.498-13.237-10.476c-2.936-2.896-5.841-5.822-8.813-8.681c-1.471-1.416-3.104-2.655-4.965-3.541    c-3.365-1.602-6.44-0.857-8.666,2.132c-2.77,3.723-5.14,7.684-6.816,12.019c-1.732,4.477-3.389,8.983-5.057,13.485    c-0.354,0.949-0.842,1.709-1.885,1.983c-1.629,0.428-3.141-0.871-3.025-2.57c0.34-4.988,0.591-9.982,0.31-14.978    c-0.132-2.339-0.526-4.665-0.866-6.987c-0.066-0.452-0.42-0.863-0.641-1.292c-0.344,0.305-0.725,0.577-1.027,0.919    c-3.17,3.575-5.39,7.733-7.382,12.035c-2.83,6.113-5.679,12.217-8.526,18.322c-0.234,0.502-0.424,1.061-0.783,1.461    c-0.927,1.037-1.739,1.172-2.96,0.643c-0.954-0.414-1.477-1.339-1.376-2.566c0.102-1.243,0.256-2.483,0.403-3.725    c0.395-3.325,0.801-6.646,1.2-9.973c0.361-3.016,0.743-6.028,1.069-9.047c0.259-2.399,0.479-4.804,0.655-7.21    c0.196-2.679,0.33-5.36,0.474-8.042c0.03-0.56,0.008-1.124-0.038-1.683c-0.012-0.146-0.185-0.361-0.319-0.392    c-0.133-0.031-0.33,0.106-0.462,0.216c-0.105,0.087-0.154,0.243-0.23,0.367c-5.149,8.339-10.173,16.759-15.489,24.992    c-3.923,6.075-8.455,11.72-13.68,16.763c-3.569,3.445-7.519,6.318-12.279,7.924c-3.773,1.271-7.617,1.832-11.53,0.795    c-1.269-0.338-2.484-0.939-3.658-1.551c-1.272-0.658-2.485-1.437-3.687-2.219c-0.833-0.543-1.291-2.003-0.984-2.837    c0.418-1.133,1.547-1.938,2.633-1.818c0.357,0.04,0.727,0.185,1.04,0.368c1.112,0.653,2.204,1.341,3.3,2.022    c2.091,1.3,4.408,1.608,6.787,1.392c5.104-0.47,9.279-2.966,13.091-6.199c7.075-5.999,12.457-13.412,17.411-21.14    c3.704-5.779,7.106-11.751,10.684-17.612c1.16-1.898,2.424-3.735,3.698-5.56c0.484-0.693,1.111-1.293,1.708-1.899    c0.726-0.737,1.668-1.065,2.656-1.277H73.169z"></path>
	</g>
</g>
<g>
	<path fill="#939598" d="M9.527,83.42h0.931l5.343,7.871l5.342-7.871h0.932v13.309h-0.988v-11.56l-5.267,7.662h-0.076l-5.267-7.662   v11.56h-0.95V83.42z"></path>
	<path fill="#939598" d="M26.163,83.42h0.989v13.309h-0.989V83.42z"></path>
	<path fill="#939598" d="M31.239,83.42h5.589c1.635,0,2.947,0.514,3.746,1.312c0.627,0.628,1.008,1.521,1.008,2.472v0.038   c0,2.225-1.654,3.498-3.898,3.803l4.392,5.685h-1.255l-4.24-5.514h-4.354v5.514h-0.988V83.42z M36.715,90.322   c2.224,0,3.878-1.122,3.878-3.042v-0.038c0-1.787-1.407-2.909-3.822-2.909h-4.544v5.989H36.715z"></path>
	<path fill="#939598" d="M50.042,83.325h0.951l6.198,13.403h-1.083l-1.692-3.727h-7.852l-1.692,3.727h-1.027L50.042,83.325z    M53.997,92.109l-3.499-7.7l-3.517,7.7H53.997z"></path>
	<path fill="#939598" d="M60.005,83.42h4.43c4.183,0,7.073,2.871,7.073,6.616v0.038c0,3.745-2.89,6.654-7.073,6.654h-4.43V83.42z    M60.993,84.332v11.484h3.441c3.708,0,6.046-2.529,6.046-5.704v-0.038c0-3.156-2.338-5.742-6.046-5.742H60.993z"></path>
	<path fill="#939598" d="M74.283,90.113v-0.038c0-3.632,2.681-6.883,6.711-6.883c4.031,0,6.673,3.213,6.673,6.845v0.038   c0,3.631-2.681,6.883-6.711,6.883C76.926,96.957,74.283,93.743,74.283,90.113z M86.641,90.113v-0.038   c0-3.289-2.396-5.989-5.685-5.989c-3.289,0-5.646,2.662-5.646,5.951v0.038c0,3.289,2.396,5.989,5.685,5.989   C84.284,96.064,86.641,93.402,86.641,90.113z"></path>
	<path fill="#939598" d="M91.033,83.42h5.59c1.635,0,2.947,0.514,3.746,1.312c0.627,0.628,1.008,1.521,1.008,2.472v0.038   c0,2.225-1.654,3.498-3.898,3.803l4.393,5.685h-1.256l-4.239-5.514h-4.354v5.514h-0.988V83.42z M96.509,90.322   c2.224,0,3.878-1.122,3.878-3.042v-0.038c0-1.787-1.407-2.909-3.821-2.909h-4.545v5.989H96.509z"></path>
	<path fill="#939598" d="M109.892,90.113v-0.038c0-3.594,2.605-6.883,6.579-6.883c2.167,0,3.536,0.646,4.867,1.749l-0.646,0.742   c-1.046-0.913-2.263-1.598-4.278-1.598c-3.231,0-5.494,2.738-5.494,5.951v0.038c0,3.441,2.148,6.008,5.703,6.008   c1.693,0,3.271-0.703,4.24-1.521V90.74h-4.449v-0.912h5.4v5.133c-1.198,1.065-3.062,1.997-5.229,1.997   C112.383,96.957,109.892,93.858,109.892,90.113z"></path>
	<path fill="#939598" d="M125.388,83.42h5.59c1.635,0,2.946,0.514,3.745,1.312c0.628,0.628,1.007,1.521,1.007,2.472v0.038   c0,2.225-1.653,3.498-3.896,3.803l4.392,5.685h-1.255l-4.24-5.514h-4.354v5.514h-0.988V83.42z M130.863,90.322   c2.225,0,3.879-1.122,3.879-3.042v-0.038c0-1.787-1.406-2.909-3.821-2.909h-4.544v5.989H130.863z"></path>
	<path fill="#939598" d="M138.544,90.113v-0.038c0-3.632,2.682-6.883,6.711-6.883c4.031,0,6.674,3.213,6.674,6.845v0.038   c0,3.631-2.681,6.883-6.711,6.883C141.187,96.957,138.544,93.743,138.544,90.113z M150.903,90.113v-0.038   c0-3.289-2.396-5.989-5.685-5.989s-5.646,2.662-5.646,5.951v0.038c0,3.289,2.395,5.989,5.684,5.989   C148.545,96.064,150.903,93.402,150.903,90.113z"></path>
	<path fill="#939598" d="M155.085,91.197V83.42h0.988v7.681c0,3.138,1.691,4.943,4.506,4.943c2.699,0,4.43-1.635,4.43-4.848V83.42   h0.988v7.662c0,3.821-2.224,5.855-5.456,5.855C157.347,96.938,155.085,94.922,155.085,91.197z"></path>
	<path fill="#939598" d="M169.744,83.42h4.83c2.928,0,4.942,1.502,4.942,4.068v0.038c0,2.795-2.415,4.24-5.19,4.24h-3.594v4.962   h-0.988V83.42z M174.382,90.854c2.473,0,4.146-1.293,4.146-3.27v-0.038c0-2.11-1.636-3.214-4.03-3.214h-3.766v6.521H174.382z"></path>
</g>
</svg>
