<?xml version="1.0" encoding="UTF-8"?><svg id="a" xmlns="http://www.w3.org/2000/svg" viewBox="0 0 905.88 390.58"><path d="M861.52.57c-.02,1-.06,2-.06,3,0,98.7,0,197.4,0,296.1,0,3.49.43,2.88-3.07,3.13-2.56.18-4.18-.75-5.86-2.66-33.71-38.22-67.5-76.36-101.27-114.53-32.29-36.49-64.57-72.98-96.86-109.48-.3-.34-.62-.66-1.03-1.08-.66.95-.39,1.88-.39,2.74-.02,73.79-.01,147.59-.01,221.38q0,3.57-3.51,3.57c-7.4,0-14.81-.08-22.21.05-2.13.04-2.65-.55-2.65-2.66.06-82.74.06-165.48.06-248.22,0-17.12-.03-34.24-.04-51.35,2.31,0,4.63,0,6.94,0,.31.43.59.89.94,1.29,6.21,7.16,12.43,14.32,18.65,21.47,31.45,36.18,62.9,72.36,94.34,108.55,26.29,30.25,52.58,60.5,78.87,90.74,2.7,3.1,5.42,6.19,8.24,9.42.6-1.18.37-2.11.37-2.99.01-75.24.01-150.48,0-225.72,0-.92-.1-1.84-.15-2.76,9.56,0,19.12,0,28.69,0Z" style="fill:#7c7d7d;"/><path d="M413.45,267.48c-3.93,0-7.86-.06-11.79.03-1.53.04-2.18-.32-2.16-2.01.08-8.01.06-16.03.01-24.04,0-1.28.36-1.73,1.69-1.72,8.17.05,16.34.06,24.5,0,1.36,0,1.69.48,1.68,1.74-.04,8.09-.06,16.18,0,24.27.01,1.51-.61,1.77-1.92,1.75-4.01-.07-8.01-.02-12.02-.02Z" style="fill:#7c7d7d;"/><path d="M463.99,290.24c0,4-.05,8.01.03,12.01.03,1.36-.3,1.88-1.78,1.87-8.08-.07-16.16-.06-24.25,0-1.26,0-1.75-.29-1.74-1.65.06-8.16.06-16.32,0-24.48,0-1.38.53-1.64,1.76-1.64,8.08.04,16.16.06,24.25-.01,1.51-.01,1.78.59,1.76,1.9-.06,4-.02,8-.02,12.01Z" style="fill:#7c7d7d;"/><path d="M463.99,253.52c0,4.09-.04,8.17.02,12.26.02,1.3-.39,1.73-1.71,1.73-8.1-.05-16.19-.06-24.29,0-1.5.01-1.77-.57-1.76-1.9.05-8.02.06-16.04,0-24.06-.01-1.41.37-1.84,1.81-1.83,8.02.07,16.04.07,24.06,0,1.59-.02,1.94.54,1.9,1.99-.08,3.93-.03,7.86-.03,11.8Z" style="fill:#7c7d7d;"/><path d="M427.36,290.02c0,4.09-.05,8.17.03,12.26.03,1.4-.4,1.85-1.83,1.84-8.02-.06-16.04-.07-24.06,0-1.59.02-1.91-.56-1.89-2,.06-7.94.06-15.88,0-23.83-.01-1.51.42-1.98,1.95-1.96,7.94.07,15.88.08,23.82,0,1.7-.02,2.05.59,2.02,2.13-.1,3.85-.03,7.71-.03,11.57Z" style="fill:#7c7d7d;"/><path d="M436.31.57c46.46,100.61,92.91,201.22,139.53,302.19h-6.5c-7.32,0-14.65-.09-21.97.06-1.96.04-2.79-.7-3.57-2.34-36.73-77.51-73.49-155.01-110.25-232.5-.33-.69-.68-1.37-1.16-2.33-3.24,6.73-6.36,13.21-9.47,19.7-34.44,71.79-68.88,143.57-103.28,215.38-.73,1.52-1.52,2.1-3.26,2.08-10.09-.1-20.18-.05-30.31-.05.03-1.19.66-2.01,1.07-2.89C333.68,200.88,380.23,101.89,426.77,2.9c.34-.73,1.02-1.39.75-2.33,2.93,0,5.86,0,8.79,0Z" style="fill:#fc4506;"/><path d="M525.46,148.69c-4.1-8.69-7.97-16.88-11.83-25.09-5.8-12.33-11.58-24.67-17.39-37-.5-1.07-.8-2.12-.79-3.32.03-7.56.06-15.11-.02-22.67-.02-1.64.29-2.27,2.12-2.25,8.71.1,17.43.07,26.14.02,1.41,0,2.01.25,2.01,1.87-.05,29.15-.04,58.29-.05,87.44,0,.15-.05.3-.19.99Z" style="fill:#7c7d7d;"/><path d="M236.89.57c0,85.12,0,170.25.01,255.37,0,14.88-.03,29.76.04,44.64,0,1.68-.39,2.12-2.14,2.25-3.13.24-5.18-.84-7.27-3.21-31.22-35.47-62.55-70.85-93.86-106.24-21.96-24.83-43.95-49.64-65.91-74.46-12.41-14.03-24.81-28.07-37.22-42.1-.49-.55-1.04-1.05-1.94-1.94v3.1c0,73.94,0,147.89,0,221.83q0,2.95-2.98,2.95c-7.63,0-15.27-.09-22.9.06-2.18.04-2.64-.63-2.64-2.7.05-68.7.04-137.4.04-206.1,0-30.23,0-60.45,0-90.68,0-.92-.08-1.84-.12-2.76,2.31,0,4.63,0,6.94,0,3.27,3.79,6.52,7.6,9.81,11.38,27.26,31.36,54.54,62.7,81.8,94.07,36.16,41.6,72.31,83.22,108.48,124.81.4.46.64,1.28,1.59,1.09v-2.57c0-75.26,0-150.52,0-225.78,0-1,.03-2,.05-3.01,9.41,0,18.82,0,28.22,0Z" style="fill:#7c7d7d;"/><path d="M905.88,18.07c0,3.26-.81,6.28-2.42,9.07-1.61,2.79-3.82,4.99-6.63,6.62-2.81,1.63-5.82,2.44-9.03,2.44s-6.22-.81-9.03-2.43c-2.81-1.62-5.02-3.83-6.64-6.63-1.62-2.79-2.43-5.79-2.43-8.99s.81-6.25,2.43-9.08c1.62-2.83,3.83-5.05,6.63-6.66,2.8-1.61,5.81-2.42,9.04-2.42s6.23.8,9.02,2.41c2.79,1.61,4.99,3.82,6.62,6.65,1.63,2.82,2.44,5.83,2.44,9.01ZM903.37,18.09c0-2.76-.7-5.37-2.1-7.8-1.4-2.44-3.29-4.35-5.69-5.75-2.4-1.4-4.97-2.1-7.74-2.1s-5.39.7-7.82,2.1c-2.43,1.4-4.34,3.32-5.73,5.75-1.39,2.43-2.08,5.05-2.08,7.85s.69,5.38,2.08,7.79c1.39,2.41,3.3,4.32,5.75,5.72,2.44,1.4,5.04,2.1,7.81,2.1s5.33-.7,7.74-2.11c2.41-1.41,4.31-3.31,5.7-5.72,1.39-2.41,2.08-5.01,2.08-7.83ZM880.28,7.53h8.68c2.03,0,3.49.2,4.38.61s1.62,1.07,2.18,2,.84,2,.84,3.23c0,1.06-.2,1.97-.6,2.74-.31.57-.97,1.19-2,1.87.94.46,1.57.99,1.89,1.6.32.61.48,1.65.48,3.12v2.35c0,1.11.25,2.03.74,2.77l.35.55h-3.68c-.24-.86-.4-1.88-.5-3.07l-.17-2.56c-.06-.94-.21-1.6-.45-1.98-.24-.38-.58-.66-1.01-.83-.44-.17-1.31-.25-2.61-.25h-5.21v8.71h-3.29V7.53ZM883.57,10.52v6.17h5.11c1.55,0,2.6-.18,3.16-.53.81-.51,1.22-1.37,1.22-2.58,0-1.06-.29-1.83-.88-2.33s-1.68-.74-3.29-.74h-5.32Z" style="fill:#7c7d7d;"/><path d="M0,389.78v-44.64h14.47c5.48,0,9.05.22,10.72.67,2.56.67,4.7,2.13,6.43,4.37,1.73,2.24,2.59,5.14,2.59,8.69,0,2.74-.5,5.05-1.49,6.91-1,1.87-2.26,3.33-3.79,4.4-1.53,1.07-3.09,1.77-4.67,2.12-2.15.43-5.27.64-9.35.64h-5.88v16.84H0ZM9.01,352.69v12.67h4.93c3.55,0,5.93-.23,7.13-.7,1.2-.47,2.14-1.2,2.82-2.19s1.02-2.15,1.02-3.47c0-1.62-.48-2.96-1.43-4.02s-2.16-1.72-3.62-1.98c-1.08-.2-3.24-.3-6.49-.3h-4.35Z" style="fill:#7c7d7d;"/><path d="M93.91,389.78v-44.64h18.97c4.77,0,8.24.4,10.4,1.2s3.89,2.23,5.19,4.28c1.3,2.05,1.95,4.4,1.95,7.04,0,3.35-.98,6.12-2.95,8.3-1.97,2.18-4.91,3.56-8.83,4.13,1.95,1.14,3.56,2.39,4.83,3.75,1.27,1.36,2.98,3.78,5.13,7.25l5.45,8.71h-10.78l-6.52-9.72c-2.31-3.47-3.9-5.66-4.75-6.56s-1.76-1.52-2.71-1.86c-.95-.33-2.47-.5-4.54-.5h-1.83v18.64h-9.01ZM102.93,364.02h6.67c4.32,0,7.02-.18,8.1-.55s1.92-.99,2.53-1.89c.61-.89.91-2.01.91-3.35,0-1.5-.4-2.72-1.2-3.64-.8-.92-1.93-1.51-3.4-1.75-.73-.1-2.92-.15-6.58-.15h-7.03v11.33Z" style="fill:#7c7d7d;"/><path d="M187.83,367.74c0-4.55.68-8.36,2.04-11.45,1.02-2.27,2.4-4.31,4.16-6.12,1.76-1.81,3.68-3.15,5.77-4.02,2.78-1.18,5.99-1.77,9.62-1.77,6.58,0,11.84,2.04,15.79,6.12,3.95,4.08,5.92,9.76,5.92,17.02s-1.96,12.85-5.88,16.92c-3.92,4.07-9.16,6.11-15.71,6.11s-11.92-2.03-15.84-6.08c-3.92-4.05-5.88-9.63-5.88-16.73ZM197.12,367.43c0,5.06,1.17,8.89,3.5,11.5,2.33,2.61,5.3,3.91,8.89,3.91s6.54-1.29,8.85-3.88c2.3-2.59,3.46-6.47,3.46-11.65s-1.12-8.93-3.36-11.45c-2.24-2.52-5.22-3.78-8.94-3.78s-6.71,1.27-8.98,3.82c-2.27,2.55-3.41,6.39-3.41,11.53Z" style="fill:#7c7d7d;"/><path d="M291.17,389.78v-44.64h14.47c5.48,0,9.05.22,10.72.67,2.56.67,4.7,2.13,6.43,4.37,1.72,2.24,2.59,5.14,2.59,8.69,0,2.74-.5,5.05-1.49,6.91-.99,1.87-2.26,3.33-3.79,4.4-1.53,1.07-3.09,1.77-4.67,2.12-2.15.43-5.27.64-9.35.64h-5.88v16.84h-9.01ZM300.18,352.69v12.67h4.93c3.55,0,5.93-.23,7.13-.7,1.2-.47,2.14-1.2,2.82-2.19.68-.99,1.02-2.15,1.02-3.47,0-1.62-.48-2.96-1.43-4.02-.95-1.06-2.16-1.72-3.62-1.98-1.08-.2-3.24-.3-6.49-.3h-4.36Z" style="fill:#7c7d7d;"/><path d="M385.43,389.78v-44.64h33.1v7.55h-24.09v9.9h22.41v7.52h-22.41v12.15h24.94v7.52h-33.96Z" style="fill:#7c7d7d;"/><path d="M478.31,389.78v-44.64h18.97c4.77,0,8.24.4,10.4,1.2s3.89,2.23,5.19,4.28,1.95,4.4,1.95,7.04c0,3.35-.99,6.12-2.95,8.3-1.97,2.18-4.91,3.56-8.83,4.13,1.95,1.14,3.56,2.39,4.83,3.75,1.27,1.36,2.98,3.78,5.13,7.25l5.45,8.71h-10.78l-6.52-9.72c-2.31-3.47-3.9-5.66-4.75-6.56-.85-.9-1.76-1.52-2.71-1.86-.95-.33-2.47-.5-4.54-.5h-1.83v18.64h-9.01ZM487.33,364.02h6.67c4.32,0,7.02-.18,8.1-.55s1.92-.99,2.53-1.89.91-2.01.91-3.35c0-1.5-.4-2.72-1.2-3.64-.8-.92-1.93-1.51-3.4-1.75-.73-.1-2.92-.15-6.58-.15h-7.03v11.33Z" style="fill:#7c7d7d;"/><path d="M585.47,389.78v-37.09h-13.25v-7.55h35.48v7.55h-13.22v37.09h-9.01Z" style="fill:#7c7d7d;"/><path d="M665.83,389.78v-44.64h9.01v44.64h-9.01Z" style="fill:#7c7d7d;"/><path d="M735.84,389.78v-44.64h33.1v7.55h-24.09v9.9h22.41v7.52h-22.41v12.15h24.94v7.52h-33.96Z" style="fill:#7c7d7d;"/><path d="M827.82,375.26l8.77-.85c.53,2.94,1.6,5.11,3.21,6.49,1.61,1.38,3.79,2.07,6.53,2.07,2.9,0,5.09-.61,6.56-1.84s2.21-2.66,2.21-4.31c0-1.06-.31-1.95-.93-2.69s-1.7-1.39-3.24-1.93c-1.06-.37-3.46-1.01-7.22-1.95-4.83-1.2-8.22-2.67-10.17-4.42-2.74-2.46-4.11-5.45-4.11-8.98,0-2.27.64-4.4,1.93-6.38,1.29-1.98,3.15-3.49,5.57-4.52,2.43-1.04,5.35-1.55,8.79-1.55,5.6,0,9.82,1.23,12.65,3.68,2.83,2.46,4.32,5.74,4.46,9.84l-9.01.4c-.39-2.29-1.21-3.94-2.48-4.95-1.27-1.01-3.17-1.51-5.71-1.51s-4.67.54-6.15,1.61c-.95.69-1.43,1.61-1.43,2.77,0,1.06.45,1.96,1.34,2.71,1.14.95,3.9,1.95,8.28,2.98s7.63,2.11,9.73,3.21,3.75,2.62,4.93,4.54c1.19,1.92,1.78,4.29,1.78,7.11,0,2.56-.71,4.95-2.13,7.19-1.42,2.23-3.43,3.89-6.03,4.98-2.6,1.09-5.84,1.63-9.72,1.63-5.64,0-9.98-1.3-13-3.91-3.03-2.61-4.83-6.41-5.42-11.4Z" style="fill:#7c7d7d;"/><path d="M703.74,299.5l-3.99,5.1c-1.96-.96-3.84-2.27-5.64-3.95-1.39,1.25-2.87,2.18-4.44,2.77s-3.43.89-5.59.89c-4.29,0-7.52-1.21-9.68-3.62-1.68-1.86-2.51-4.01-2.51-6.44,0-2.21.66-4.19,1.97-5.96,1.32-1.76,3.28-3.29,5.9-4.59-1.18-1.39-2.06-2.72-2.66-3.98-.6-1.26-.89-2.46-.89-3.58,0-2.08.83-3.85,2.5-5.3,1.67-1.45,4.05-2.17,7.13-2.17s5.3.76,6.98,2.28c1.68,1.52,2.51,3.38,2.51,5.57,0,1.39-.41,2.72-1.25,3.97s-2.51,2.67-5.03,4.25l4.79,6.32c.56-1,1.05-2.31,1.46-3.92l5.97,1.36c-.59,2.12-1.11,3.66-1.55,4.64-.44.98-.91,1.8-1.41,2.46.74.69,1.69,1.44,2.85,2.27s2.02,1.37,2.57,1.63ZM683.18,287.93c-1.52.77-2.66,1.69-3.41,2.77-.75,1.08-1.13,2.19-1.13,3.31,0,1.43.47,2.59,1.4,3.49.93.9,2.18,1.35,3.75,1.35,1.03,0,2.03-.2,2.98-.61.96-.41,2-1.08,3.12-2.02l-6.72-8.29ZM685.76,280.77l1.79-1.36c1.32-1.02,1.97-2.03,1.97-3.03,0-.85-.32-1.57-.95-2.16-.63-.59-1.49-.89-2.57-.89s-1.87.26-2.47.79c-.59.52-.89,1.13-.89,1.82,0,.81.5,1.8,1.5,2.96l1.62,1.88Z" style="fill:#7c7d7d;"/><path d="M749,291.39l7.69,2.44c-1.18,4.28-3.14,7.47-5.88,9.55-2.74,2.08-6.22,3.12-10.43,3.12-5.21,0-9.5-1.78-12.85-5.34-3.36-3.56-5.03-8.43-5.03-14.61,0-6.53,1.69-11.61,5.06-15.22,3.37-3.61,7.81-5.42,13.31-5.42,4.8,0,8.7,1.42,11.7,4.26,1.78,1.68,3.12,4.09,4.02,7.23l-7.84,1.87c-.46-2.03-1.43-3.64-2.9-4.82-1.47-1.18-3.26-1.77-5.37-1.77-2.91,0-5.27,1.05-7.08,3.13-1.81,2.09-2.72,5.47-2.72,10.15,0,4.96.89,8.5,2.68,10.6s4.1,3.16,6.96,3.16c2.11,0,3.92-.67,5.43-2.01,1.52-1.34,2.61-3.44,3.27-6.32Z" style="fill:#7c7d7d;"/><path d="M774.49,286.43c0-4,.6-7.35,1.79-10.07.89-2,2.11-3.79,3.65-5.38,1.54-1.59,3.24-2.77,5.07-3.53,2.45-1.03,5.27-1.55,8.46-1.55,5.78,0,10.41,1.79,13.88,5.38,3.47,3.59,5.21,8.58,5.21,14.97s-1.72,11.29-5.17,14.87-8.05,5.37-13.82,5.37-10.48-1.78-13.92-5.34c-3.44-3.56-5.17-8.47-5.17-14.71ZM782.66,286.17c0,4.44,1.03,7.81,3.08,10.11,2.05,2.29,4.66,3.44,7.82,3.44s5.75-1.14,7.78-3.41c2.03-2.28,3.04-5.69,3.04-10.24s-.99-7.85-2.96-10.07c-1.97-2.21-4.59-3.32-7.86-3.32s-5.9,1.12-7.9,3.36-3,5.62-3,10.13Z" style="fill:#7c7d7d;"/></svg>