<?xml version="1.0" encoding="UTF-8"?><svg id="a" xmlns="http://www.w3.org/2000/svg" viewBox="0 0 413.5 267.76"><path d="M26.06,238.26v-20.25h2.53c.64,0,1.28,0,1.92,0s1.17.01,1.6.02c2.45.07,4.46.51,6.01,1.33,1.55.82,2.69,1.97,3.41,3.44s1.08,3.21,1.08,5.23-.38,3.91-1.15,5.44c-.77,1.53-1.93,2.71-3.51,3.54-1.57.83-3.57,1.25-5.99,1.25h-5.91ZM30.18,234.95h1.88c1.16,0,2.21-.22,3.16-.67s1.71-1.18,2.28-2.2c.57-1.02.85-2.38.85-4.07,0-1.58-.25-2.86-.76-3.84-.5-.98-1.22-1.7-2.16-2.16-.93-.46-2.04-.69-3.32-.69h-1.93v13.64Z" style="fill:#7c7d7d;"/><path d="M49.03,238.26v-20.25h13.9v3.44h-9.8v4.91h8.5v3.39h-8.53v5.01h9.97v3.49h-14.04Z" style="fill:#7c7d7d;"/><path d="M75.05,238.26l-7-20.25h3.91l5.42,15.5,5.39-15.5h3.92l-7,20.25h-4.63Z" style="fill:#7c7d7d;"/><path d="M92.29,238.26v-20.25h13.9v3.44h-9.8v4.91h8.5v3.39h-8.53v5.01h9.97v3.49h-14.04Z" style="fill:#7c7d7d;"/><path d="M112.94,238.26v-20.25h4.12v16.79h8.79v3.46h-12.91Z" style="fill:#7c7d7d;"/><path d="M139.76,238.54c-1.91,0-3.57-.42-4.96-1.25-1.4-.84-2.47-2.03-3.23-3.57-.76-1.54-1.14-3.39-1.14-5.54s.38-4.01,1.16-5.57c.77-1.56,1.85-2.76,3.26-3.6s3.04-1.27,4.93-1.27,3.51.42,4.9,1.26c1.39.84,2.47,2.04,3.23,3.6.76,1.56,1.14,3.42,1.14,5.59s-.38,3.98-1.13,5.53c-.75,1.55-1.82,2.74-3.21,3.58s-3.03,1.25-4.93,1.25ZM139.76,235.18c.99,0,1.85-.23,2.57-.71s1.28-1.22,1.67-2.24c.39-1.02.59-2.35.59-4s-.2-3.06-.59-4.1c-.4-1.04-.96-1.81-1.68-2.3-.72-.49-1.58-.74-2.56-.74s-1.83.25-2.56.74c-.73.49-1.29,1.26-1.69,2.31-.4,1.05-.6,2.41-.6,4.1s.2,2.99.6,4c.4,1.02.97,1.76,1.69,2.23.73.47,1.58.71,2.56.71Z" style="fill:#7c7d7d;"/><path d="M155.45,238.26v-20.25h7.45c1.47,0,2.8.25,3.96.76,1.17.51,2.09,1.26,2.77,2.25.68.99,1.02,2.2,1.02,3.63,0,1.34-.3,2.49-.9,3.44-.6.95-1.43,1.68-2.51,2.19-1.08.51-2.35.76-3.8.76h-3.86v7.21h-4.12ZM159.52,227.87h3.79c1.03,0,1.87-.33,2.52-.99s.98-1.47.98-2.44-.35-1.81-1.04-2.4c-.69-.59-1.53-.89-2.52-.89h-3.74v6.72Z" style="fill:#7c7d7d;"/><path d="M176.52,238.26v-20.25h13.9v3.44h-9.8v4.91h8.5v3.39h-8.53v5.01h9.97v3.49h-14.04Z" style="fill:#7c7d7d;"/><path d="M197.17,238.26v-20.25h8.54c1.61,0,2.94.26,3.96.77,1.03.51,1.78,1.23,2.27,2.14.49.91.73,1.96.73,3.14,0,1.06-.17,1.96-.5,2.69-.33.73-.77,1.34-1.3,1.83s-1.12.88-1.76,1.19l3.77,8.48h-4.24l-3.3-7.8h-4.09v7.8h-4.07ZM201.24,227.31h3.74c1.09,0,1.96-.29,2.6-.88.64-.59.96-1.34.96-2.27s-.31-1.67-.92-2.21-1.4-.81-2.34-.81h-4.03v6.17Z" style="fill:#7c7d7d;"/><path d="M236.16,238.54c-1.01,0-1.99-.13-2.95-.38s-1.84-.63-2.63-1.13c-.79-.5-1.44-1.13-1.95-1.89-.51-.76-.81-1.64-.92-2.66h4.19c.14.62.41,1.13.8,1.55.4.42.91.74,1.54.97.63.22,1.35.34,2.16.34.64,0,1.26-.09,1.83-.28.58-.19,1.05-.47,1.41-.85s.55-.86.55-1.44c0-.69-.25-1.21-.76-1.56s-1.19-.63-2.06-.83l-3.79-.83c-1.07-.22-2.01-.57-2.81-1.04-.8-.47-1.41-1.09-1.84-1.85-.43-.76-.64-1.69-.64-2.78,0-1.26.35-2.35,1.04-3.26s1.64-1.62,2.84-2.11,2.55-.73,4.04-.73c1.69,0,3.12.27,4.28.82s2.05,1.28,2.67,2.21.93,1.97.94,3.12h-4.09c-.07-.71-.29-1.28-.64-1.7-.35-.43-.81-.73-1.36-.92s-1.19-.29-1.9-.29c-1.22,0-2.11.25-2.67.74-.56.5-.84,1.07-.84,1.72,0,.62.21,1.11.64,1.49.42.38,1.11.66,2.05.86l3.51.76c1.31.25,2.37.65,3.18,1.2.81.55,1.4,1.21,1.78,1.98.37.78.56,1.64.56,2.6,0,1.22-.35,2.3-1.04,3.23-.7.93-1.65,1.65-2.88,2.18-1.22.52-2.63.78-4.23.78Z" style="fill:#7c7d7d;"/><path d="M250.71,238.26v-20.25h13.9v3.44h-9.8v4.91h8.5v3.39h-8.53v5.01h9.97v3.49h-14.04Z" style="fill:#7c7d7d;"/><path d="M271.36,238.26v-20.25h8.54c1.61,0,2.94.26,3.96.77,1.03.51,1.78,1.23,2.27,2.14.49.91.73,1.96.73,3.14,0,1.06-.17,1.96-.5,2.69-.33.73-.77,1.34-1.3,1.83s-1.12.88-1.76,1.19l3.77,8.48h-4.24l-3.3-7.8h-4.09v7.8h-4.07ZM275.43,227.31h3.74c1.09,0,1.96-.29,2.6-.88.64-.59.96-1.34.96-2.27s-.31-1.67-.92-2.21-1.4-.81-2.34-.81h-4.03v6.17Z" style="fill:#7c7d7d;"/><path d="M298.01,238.26l-7-20.25h3.91l5.42,15.5,5.39-15.5h3.92l-7,20.25h-4.63Z" style="fill:#7c7d7d;"/><path d="M315.25,238.26v-20.25h4.07v20.25h-4.07Z" style="fill:#7c7d7d;"/><path d="M334.91,238.54c-1.89,0-3.51-.44-4.89-1.32-1.37-.88-2.43-2.11-3.17-3.7-.74-1.59-1.11-3.44-1.11-5.56s.37-3.96,1.11-5.48c.74-1.53,1.79-2.7,3.16-3.52,1.37-.82,3.01-1.23,4.9-1.23,1.52,0,2.88.31,4.07.92,1.19.61,2.15,1.44,2.88,2.5.73,1.05,1.16,2.25,1.29,3.57h-4.28c-.13-.7-.37-1.32-.71-1.87-.35-.55-.8-.98-1.36-1.29s-1.23-.47-2.02-.47c-.94,0-1.75.23-2.44.69-.68.46-1.2,1.19-1.57,2.21s-.55,2.36-.55,4.03c0,2.52.4,4.34,1.21,5.47.81,1.12,1.92,1.69,3.34,1.69.78,0,1.46-.18,2.02-.54s1.01-.84,1.36-1.43c.35-.59.58-1.24.71-1.95h4.28c-.12.96-.35,1.88-.7,2.75-.35.87-.84,1.65-1.47,2.33s-1.45,1.22-2.45,1.61c-1,.39-2.21.59-3.63.59Z" style="fill:#7c7d7d;"/><path d="M349.56,238.26v-20.25h13.9v3.44h-9.8v4.91h8.5v3.39h-8.53v5.01h9.97v3.49h-14.04Z" style="fill:#7c7d7d;"/><path d="M377.92,238.54c-1.01,0-1.99-.13-2.95-.38-.96-.25-1.84-.63-2.63-1.13-.79-.5-1.44-1.13-1.95-1.89-.51-.76-.81-1.64-.92-2.66h4.19c.14.62.41,1.13.81,1.55.4.42.91.74,1.54.97.63.22,1.35.34,2.16.34.64,0,1.26-.09,1.83-.28.58-.19,1.05-.47,1.41-.85s.55-.86.55-1.44c0-.69-.25-1.21-.76-1.56-.5-.35-1.19-.63-2.06-.83l-3.79-.83c-1.07-.22-2.01-.57-2.81-1.04-.8-.47-1.41-1.09-1.84-1.85-.43-.76-.64-1.69-.64-2.78,0-1.26.35-2.35,1.04-3.26.69-.91,1.64-1.62,2.84-2.11s2.55-.73,4.04-.73c1.69,0,3.12.27,4.28.82,1.16.55,2.05,1.28,2.67,2.21s.93,1.97.94,3.12h-4.09c-.07-.71-.29-1.28-.64-1.7-.35-.43-.81-.73-1.36-.92-.56-.19-1.19-.29-1.9-.29-1.22,0-2.11.25-2.67.74-.56.5-.84,1.07-.84,1.72,0,.62.21,1.11.64,1.49.43.38,1.11.66,2.05.86l3.51.76c1.31.25,2.37.65,3.18,1.2s1.4,1.21,1.78,1.98c.37.78.56,1.64.56,2.6,0,1.22-.35,2.3-1.04,3.23-.69.93-1.65,1.65-2.88,2.18-1.22.52-2.63.78-4.23.78Z" style="fill:#7c7d7d;"/><path d="M385.88,26.04c0,.42-.03.84-.03,1.25v123.62c0,1.46.18,1.2-1.28,1.31-1.07.08-1.75-.31-2.45-1.11-14.07-15.96-28.18-31.88-42.28-47.82-13.48-15.23-26.96-30.47-40.44-45.71-.13-.14-.26-.28-.43-.45-.28.4-.16.78-.16,1.14,0,30.81,0,61.62,0,92.43,0,.99-.49,1.49-1.47,1.49-3.09,0-6.18-.03-9.27.02-.89.02-1.11-.23-1.11-1.11.03-34.54.03-69.09.03-103.63,0-7.15-.01-14.3-.02-21.44h2.9c.13.18.25.37.39.54,2.59,2.99,5.19,5.98,7.79,8.96,13.13,15.11,26.26,30.21,39.39,45.32,10.98,12.63,21.95,25.26,32.93,37.88,1.13,1.29,2.26,2.58,3.44,3.93.25-.49.15-.88.15-1.25,0-31.41,0-62.83,0-94.24,0-.38-.04-.77-.06-1.15h11.98Z" style="fill:#7c7d7d;"/><path d="M198.81,137.47c-1.64,0-3.28-.03-4.92.01-.64.02-.91-.13-.9-.84.03-3.34.03-6.69,0-10.04,0-.53.15-.72.71-.72,3.41.02,6.82.03,10.23,0,.57,0,.71.2.7.73-.02,3.38-.03,6.76,0,10.13,0,.63-.25.74-.8.73-1.67-.03-3.34,0-5.02,0h0Z" style="fill:#7c7d7d;"/><path d="M219.91,146.97c0,1.67-.02,3.34.01,5.01.01.57-.13.78-.74.78-3.37-.03-6.75-.03-10.12,0-.53,0-.73-.12-.73-.69.03-3.41.03-6.81,0-10.22,0-.58.22-.68.73-.68,3.37.02,6.75.03,10.12,0,.63,0,.74.25.73.79-.03,1.67,0,3.34,0,5.01h0Z" style="fill:#7c7d7d;"/><path d="M219.91,131.64c0,1.71-.02,3.41,0,5.12,0,.54-.16.72-.71.72-3.38-.02-6.76-.03-10.14,0-.63,0-.74-.24-.73-.79.02-3.35.03-6.7,0-10.05,0-.59.15-.77.76-.76,3.35.03,6.7.03,10.05,0,.66,0,.81.23.79.83-.03,1.64-.01,3.28-.01,4.93h0Z" style="fill:#7c7d7d;"/><path d="M204.61,146.88c0,1.71-.02,3.41.01,5.12.01.58-.17.77-.76.77-3.35-.03-6.7-.03-10.05,0-.66,0-.8-.23-.79-.84.03-3.31.03-6.63,0-9.95,0-.63.18-.83.81-.82,3.31.03,6.63.03,9.94,0,.71,0,.86.25.84.89-.04,1.61-.01,3.22-.01,4.83h0Z" style="fill:#7c7d7d;"/><path d="M208.35,26.04c19.4,42.01,38.79,84.01,58.25,126.17h-2.71c-3.06,0-6.12-.04-9.17.03-.82.02-1.16-.29-1.49-.98-15.33-32.36-30.68-64.72-46.03-97.07-.14-.29-.28-.57-.48-.97-1.35,2.81-2.66,5.52-3.95,8.22-14.38,29.97-28.76,59.94-43.12,89.92-.3.63-.63.88-1.36.87-4.21-.04-8.43-.02-12.65-.02.01-.5.28-.84.45-1.21,19.43-41.33,38.87-82.66,58.3-123.99.14-.3.43-.58.31-.97,1.22,0,2.45,0,3.67,0Z" style="fill:#f16624;"/><path d="M245.57,87.88c-1.71-3.63-3.33-7.05-4.94-10.48-2.42-5.15-4.83-10.3-7.26-15.45-.21-.45-.33-.89-.33-1.39.01-3.16.03-6.31,0-9.46,0-.68.12-.95.89-.94,3.64.04,7.28.03,10.91,0,.59,0,.84.1.84.78-.02,12.17-.02,24.34-.02,36.51,0,.06-.02.13-.08.41h0Z" style="fill:#7c7d7d;"/><path d="M125.09,26.04c0,35.54,0,71.08,0,106.62,0,6.21-.01,12.42.02,18.64,0,.7-.16.89-.89.94-1.31.1-2.16-.35-3.04-1.34-13.03-14.81-26.11-29.58-39.19-44.36-9.17-10.37-18.35-20.72-27.52-31.09-5.18-5.86-10.36-11.72-15.54-17.58-.2-.23-.43-.44-.81-.81v93.91c0,.82-.41,1.23-1.24,1.23-3.19,0-6.38-.04-9.56.03-.91.02-1.1-.26-1.1-1.13.02-28.68.02-57.37.02-86.05V27.19c0-.38-.03-.77-.05-1.15h2.9c1.37,1.58,2.72,3.17,4.1,4.75,11.38,13.09,22.77,26.18,34.15,39.27,15.1,17.37,30.19,34.74,45.29,52.11.17.19.27.53.66.46V27.29c0-.42.01-.84.02-1.26h11.78Z" style="fill:#7c7d7d;"/><path d="M404.4,33.34c0,1.36-.34,2.62-1.01,3.79-.67,1.16-1.59,2.08-2.77,2.76s-2.43,1.02-3.77,1.02-2.6-.34-3.77-1.01c-1.17-.68-2.1-1.6-2.77-2.77-.68-1.16-1.01-2.42-1.01-3.75s.34-2.61,1.01-3.79,1.6-2.11,2.77-2.78c1.17-.67,2.43-1.01,3.77-1.01s2.6.33,3.77,1.01c1.16.67,2.08,1.59,2.76,2.78.68,1.18,1.02,2.43,1.02,3.76h0ZM403.35,33.35c0-1.15-.29-2.24-.88-3.26-.58-1.02-1.37-1.82-2.38-2.4s-2.07-.88-3.23-.88-2.25.29-3.26.88c-1.01.58-1.81,1.39-2.39,2.4-.58,1.01-.87,2.11-.87,3.28s.29,2.25.87,3.25,1.38,1.8,2.4,2.39c1.02.58,2.1.88,3.26.88s2.23-.29,3.23-.88,1.8-1.38,2.38-2.39.87-2.09.87-3.27h0ZM393.71,28.94h3.62c.85,0,1.46.08,1.83.25.37.17.68.45.91.84s.35.84.35,1.35c0,.44-.08.82-.25,1.14-.13.24-.4.5-.84.78.39.19.66.41.79.67s.2.69.2,1.3v.98c0,.46.1.85.31,1.16l.15.23h-1.54c-.1-.36-.17-.78-.21-1.28l-.07-1.07c-.03-.39-.09-.67-.19-.83s-.24-.28-.42-.35c-.18-.07-.55-.1-1.09-.1h-2.18v3.64h-1.37v-8.71h0ZM395.08,30.19v2.58h2.13c.65,0,1.09-.08,1.32-.22.34-.21.51-.57.51-1.08,0-.44-.12-.76-.37-.97s-.7-.31-1.37-.31h-2.22,0Z" style="fill:#7c7d7d;"/><path d="M26.19,188.53v-18.64h6.04c2.29,0,3.78.09,4.48.28,1.07.28,1.96.89,2.68,1.82s1.08,2.15,1.08,3.63c0,1.14-.21,2.11-.62,2.88-.42.78-.94,1.39-1.58,1.84s-1.29.74-1.95.89c-.9.18-2.2.27-3.9.27h-2.45v7.03h-3.77ZM29.95,173.05v5.29h2.06c1.48,0,2.48-.1,2.98-.29.5-.2.89-.5,1.18-.91s.43-.9.43-1.45c0-.68-.2-1.24-.6-1.68s-.9-.72-1.51-.83c-.45-.08-1.35-.13-2.71-.13h-1.82Z" style="fill:#7c7d7d;"/><path d="M65.4,188.53v-18.64h7.92c1.99,0,3.44.17,4.34.5s1.62.93,2.17,1.79c.54.86.81,1.84.81,2.94,0,1.4-.41,2.56-1.23,3.47s-2.05,1.49-3.69,1.72c.81.48,1.49,1,2.02,1.57.53.57,1.24,1.58,2.14,3.03l2.28,3.64h-4.5l-2.72-4.06c-.96-1.45-1.63-2.36-1.98-2.74s-.73-.63-1.13-.78c-.4-.14-1.03-.21-1.9-.21h-.76v7.78h-3.76ZM69.16,177.78h2.78c1.8,0,2.93-.08,3.38-.23s.8-.41,1.06-.79c.25-.37.38-.84.38-1.4,0-.63-.17-1.14-.5-1.52-.33-.38-.81-.63-1.42-.73-.3-.04-1.22-.06-2.75-.06h-2.94v4.73h0Z" style="fill:#7c7d7d;"/><path d="M104.61,179.33c0-1.9.28-3.49.85-4.78.43-.95,1-1.8,1.74-2.56.73-.76,1.54-1.32,2.41-1.68,1.16-.49,2.5-.74,4.02-.74,2.75,0,4.94.85,6.59,2.56s2.47,4.07,2.47,7.11-.82,5.36-2.45,7.06-3.82,2.55-6.56,2.55-4.98-.85-6.61-2.54-2.45-4.02-2.45-6.98h0ZM108.49,179.2c0,2.11.49,3.71,1.46,4.8s2.21,1.63,3.71,1.63,2.73-.54,3.69-1.62c.96-1.08,1.44-2.7,1.44-4.86s-.47-3.73-1.4-4.78c-.94-1.05-2.18-1.58-3.73-1.58s-2.8.53-3.75,1.59c-.95,1.06-1.42,2.67-1.42,4.81h0Z" style="fill:#7c7d7d;"/><path d="M147.75,188.53v-18.64h6.04c2.29,0,3.78.09,4.48.28,1.07.28,1.96.89,2.68,1.82.72.94,1.08,2.15,1.08,3.63,0,1.14-.21,2.11-.62,2.88-.41.78-.94,1.39-1.58,1.84s-1.29.74-1.95.89c-.9.18-2.2.27-3.9.27h-2.45v7.03h-3.77ZM151.52,173.05v5.29h2.06c1.48,0,2.48-.1,2.98-.29s.89-.5,1.18-.91.43-.9.43-1.45c0-.68-.2-1.24-.6-1.68-.4-.44-.9-.72-1.51-.83-.45-.08-1.35-.13-2.71-.13h-1.82Z" style="fill:#7c7d7d;"/><path d="M187.11,188.53v-18.64h13.82v3.15h-10.06v4.13h9.36v3.14h-9.36v5.07h10.41v3.14h-14.18,0Z" style="fill:#7c7d7d;"/><path d="M225.89,188.53v-18.64h7.92c1.99,0,3.44.17,4.34.5s1.62.93,2.17,1.79.81,1.84.81,2.94c0,1.4-.41,2.56-1.23,3.47-.82.91-2.05,1.49-3.69,1.72.81.48,1.49,1,2.02,1.57s1.24,1.58,2.14,3.03l2.28,3.64h-4.5l-2.72-4.06c-.96-1.45-1.63-2.36-1.98-2.74s-.73-.63-1.13-.78c-.4-.14-1.03-.21-1.9-.21h-.76v7.78h-3.76ZM229.65,177.78h2.78c1.8,0,2.93-.08,3.38-.23s.8-.41,1.06-.79.38-.84.38-1.4c0-.63-.17-1.14-.5-1.52-.33-.38-.81-.63-1.42-.73-.3-.04-1.22-.06-2.75-.06h-2.94v4.73h0Z" style="fill:#7c7d7d;"/><path d="M270.63,188.53v-15.49h-5.53v-3.15h14.81v3.15h-5.52v15.49h-3.76Z" style="fill:#7c7d7d;"/><path d="M304.18,188.53v-18.64h3.76v18.64h-3.76Z" style="fill:#7c7d7d;"/><path d="M333.41,188.53v-18.64h13.82v3.15h-10.06v4.13h9.36v3.14h-9.36v5.07h10.41v3.14h-14.18,0Z" style="fill:#7c7d7d;"/><path d="M371.81,182.47l3.66-.35c.22,1.23.67,2.13,1.34,2.71.67.58,1.58.86,2.73.86,1.21,0,2.13-.25,2.74-.77s.92-1.11.92-1.8c0-.44-.13-.81-.39-1.12s-.71-.58-1.35-.81c-.44-.15-1.44-.42-3.01-.81-2.02-.5-3.43-1.11-4.25-1.85-1.14-1.03-1.72-2.28-1.72-3.75,0-.95.27-1.84.81-2.66s1.32-1.46,2.33-1.89c1.01-.43,2.23-.65,3.67-.65,2.34,0,4.1.51,5.28,1.54,1.18,1.03,1.8,2.4,1.86,4.11l-3.76.17c-.16-.96-.51-1.64-1.04-2.07-.53-.42-1.32-.63-2.38-.63s-1.95.23-2.57.67c-.4.29-.6.67-.6,1.16,0,.44.19.82.56,1.13.48.4,1.63.81,3.46,1.24s3.19.88,4.06,1.34,1.57,1.09,2.06,1.9c.5.8.74,1.79.74,2.97,0,1.07-.3,2.07-.89,3-.59.93-1.43,1.62-2.52,2.08-1.09.46-2.44.68-4.06.68-2.35,0-4.17-.54-5.43-1.63-1.27-1.09-2.02-2.68-2.26-4.76h0Z" style="fill:#7c7d7d;"/><path d="M320,150.84l-1.67,2.13c-.82-.4-1.6-.95-2.35-1.65-.58.52-1.2.91-1.85,1.16s-1.43.37-2.33.37c-1.79,0-3.14-.51-4.04-1.51-.7-.78-1.05-1.67-1.05-2.69,0-.92.28-1.75.82-2.49.55-.73,1.37-1.37,2.46-1.92-.49-.58-.86-1.14-1.11-1.66s-.37-1.03-.37-1.49c0-.87.35-1.61,1.04-2.21.7-.61,1.69-.91,2.98-.91s2.21.32,2.91.95,1.05,1.41,1.05,2.33c0,.58-.17,1.14-.52,1.66s-1.05,1.11-2.1,1.77l2,2.64c.23-.42.44-.96.61-1.64l2.49.57c-.25.89-.46,1.53-.65,1.94s-.38.75-.59,1.03c.31.29.71.6,1.19.95s.84.57,1.07.68h0ZM311.42,146.01c-.63.32-1.11.71-1.42,1.16s-.47.91-.47,1.38c0,.6.2,1.08.58,1.46.39.38.91.56,1.57.56.43,0,.85-.08,1.24-.25.4-.17.84-.45,1.3-.84l-2.81-3.46h0ZM312.5,143.02l.75-.57c.55-.43.82-.85.82-1.27,0-.35-.13-.66-.4-.9s-.62-.37-1.07-.37-.78.11-1.03.33c-.25.22-.37.47-.37.76,0,.34.21.75.63,1.24l.68.78h0Z" style="fill:#7c7d7d;"/><path d="M338.9,147.45l3.21,1.02c-.49,1.79-1.31,3.12-2.45,3.99s-2.6,1.3-4.35,1.3c-2.18,0-3.97-.74-5.36-2.23-1.4-1.49-2.1-3.52-2.1-6.1,0-2.73.71-4.85,2.11-6.35,1.41-1.51,3.26-2.26,5.56-2.26,2,0,3.63.59,4.88,1.78.74.7,1.3,1.71,1.68,3.02l-3.27.78c-.19-.85-.6-1.52-1.21-2.01-.61-.49-1.36-.74-2.24-.74-1.21,0-2.2.44-2.96,1.31-.76.87-1.14,2.28-1.14,4.24,0,2.07.37,3.55,1.12,4.43s1.71,1.32,2.91,1.32c.88,0,1.64-.28,2.27-.84.63-.56,1.09-1.44,1.37-2.64h0Z" style="fill:#7c7d7d;"/><path d="M349.54,145.38c0-1.67.25-3.07.75-4.2.37-.84.88-1.58,1.52-2.25.64-.66,1.35-1.16,2.12-1.47,1.02-.43,2.2-.65,3.53-.65,2.41,0,4.35.75,5.79,2.25,1.45,1.5,2.18,3.58,2.18,6.25s-.72,4.71-2.16,6.21-3.36,2.24-5.77,2.24-4.38-.74-5.81-2.23-2.16-3.54-2.16-6.14h0ZM352.95,145.28c0,1.85.43,3.26,1.29,4.22.86.96,1.95,1.44,3.26,1.44s2.4-.48,3.25-1.42c.85-.95,1.27-2.38,1.27-4.28s-.41-3.28-1.24-4.2c-.82-.92-1.92-1.39-3.28-1.39s-2.46.47-3.3,1.4-1.25,2.35-1.25,4.23h0Z" style="fill:#7c7d7d;"/></svg>