<?xml version="1.0" encoding="UTF-8"?>
<svg id="Layer_1" xmlns="http://www.w3.org/2000/svg" version="1.1" viewBox="0 0 370 319">
  <!-- Generator: Adobe Illustrator 29.5.0, SVG Export Plug-In . SVG Version: 2.1.0 Build 137)  -->
  <defs>
    <style>
      .st0 {
        fill: #797979;
      }

      .st1 {
        fill: #101010;
      }
    </style>
  </defs>
  <path class="st1" d="M193.5,183l31,66,30-66h20.5c.5,7.1-9.3,1.8-10.8,8.7s-.5,26.5-.3,34.8c.2,8.4.3,19.8,1.1,27.9s.4,7.5,4,9,9.3,0,8,4.5h-34c-1.4-5,5.3-2.3,8.6-4.9s2.1-4,2.3-5.7c2.5-18.3-2.3-40.7-1.4-59.4l-30,69.1-4-1-28.5-66-1.9,58.4c-.9,6.1,11.2,5.6,11.9,6.6s-.1,2.2,0,3h-29c-1.4-4.9,5.5-2.6,8.5-6s2-4.9,2.3-6.7c2.3-13.8,2.9-34.4,3.3-48.7.3-10.5,2.2-20.8-12-19.5.1-.7-.2-4,0-4h20.5Z"/>
  <path class="st1" d="M141.6,8.4c1.9,1.1,3,5.2,3.8,5.3s3.6-1.4,5.9-.8.6,2,1.2,2c1,0,2.4-1.3,3.8-.9s2,4.2,5.1,4,.4-2.1,1-2.1c1.6,0,2.3,1.9,4,2s3-1.1,3.9-.9,1.2,2.3,1.8,2.7c1.1.6,5.2.2,7.4,1.1s1.4,2.1,2,2.2c1.9.3,3.9-1,5.9-1.1,7.8-.3,5.1,4.9,6.6,5.9s3.3,0,4.9.6c6.3,2.2,2.6,6.3,3,6.5,1.3,1.1,6.4-1.8,8.4-1.7s2.6,2.7,3.3,2.8,7.4.6,7.8.6c.8,0,2.5-2.3,3.5-1.6s.6,2.6,2.5,4c3.6,2.6,9.4.7,7.6,8.3s-8.2,2.8-10.4,2.6c-21-2-48.8-11.2-70.4-15.6-2.2-.5-13.2-3-14.1-2.2-1.8,6.4-1.8,13.2-4.2,19.3-3,7.8-3,20.7-6.1,27.9s-4.7,3.2-6.5.4.6-3.5-2.3-4.2c5.2-8.8,4.6-20,5.1-30s.8-4,1-5.9.1-8.2-.2-8.5c-.7-.7-4.3,1.6-2.6-3.3s2.9-2.3-1.3-6.7c7.8-2.6,3.4-4.4,3-7.5-1.2-10.3,9.4-8.8,15.6-5.1Z"/>
  <path class="st1" d="M5,268c.1-.8-.2-2.8,0-3,.9-1,8.8,1.3,10.8-5.7s2.3-56.9,0-66.5-9.3-4.3-10.8-5.7-.4-2.4.6-3.1c2-1.4,26.6-1.2,30.9-.9,7.1.4,16.6,2.4,22.4,6.6s4.8,4.9,5,5.2,1.7,5.6,1.8,5.9c0,.5-.1,8.8-.2,9.3-.4,1.6-3.4,8.1-4.5,9.6-2.3,3.3-11.2,7.3-11,8.9.5,4.3,18.3,30.8,22.1,34s9.5,2.6,7.9,7.6c-6.4-1.3-12.9-1.1-18.5-5-8.9-6.2-18.2-31-23.8-33.2s-6.4-.7-9.7-.8c0,6.8.1,13.7,0,20.5s-1,4-1,5.9c.2,6.5,6.5,7.6,11.9,7.6v3H5ZM27,227c16.2,1.9,27.9-3.9,27-21.5s-5.3-16.5-15.5-17.5-11.5-.5-11.5,1.5v37.5Z"/>
  <path class="st1" d="M84,268c-1.2-4.4,3.9-3,7.4-5.1s2.5-2.2,3.2-3.8c11.3-22.5,16.8-52.9,28.4-74.6s3.6-3.8,5.1,0c9.5,22.5,15.1,49,25.1,70.9.7,1.5,3.2,6.5,4.2,7.3,3.3,2.8,10.1.5,8.7,5.3h-31c-1.8-5.5,7.7-1.9,8-6.5s-7.4-18.6-8.2-25.4h-25.8s-7.9,24.2-7.9,24.2c.3,5.4,10,3.8,10.8,4.7s-.1,2.2,0,3h-28ZM111,231h22l-10.5-31-11.5,31Z"/>
  <path class="st1" d="M284,268c.1-.8-.2-2.7,0-3,.4-.4,9.4-1.1,9.8-4.8l28.5-75.5c2.2-4.4,3.9-3.1,5.8.7,10.5,20.9,15.1,49.4,25.2,70.8s2.7,5.4,3.7,6.3c3.2,2.8,9.3.8,8,5.5h-31c-1.9-5.5,8.7-1.6,9-6.5s-8-18.7-8.1-25.4c-4.5.6-23.7-1.4-26,.6s-.8,4.1-1.2,5-1.4.3-1.9,1.7c-1.2,3.5-5.7,18.2-2.6,20.4s9.1-.3,8.8,4.2h-28ZM311,231h19.5c.3,0,.7,1.2,1.5,1,1.4-1.9-8.8-27.9-10.5-32-.3,4.3-11.9,29.7-10.5,31Z"/>
  <path class="st1" d="M256.7,49.3c1,1.2,1.4,6.9,1.1,8.1s-2.2,1.3-2.8,2.3-1.8,9.1-1.9,10.9,1.2,4.1.9,4.4-2.4-.3-3.5,1-1,4.5-1.8,6.2c-1.4,3.1-4.4,6.7-5.1,10-1.1,5.2.4,2.4-2,7-3.7,7.2-1.4,7.4-1.7,13.2s-2.6,7.9-3,8.9-2.2.4-2.7,1-4.1,5-4.2,5.3c-.5,2.3,3.1,5.6,2.8,6.8s-7.2,5.9-8.1,7c-1.8,2.5.8,6.4-5.3,4.4s-1.6-5.9-1.4-8.1c2.2-20.3,10.9-57.2,16.6-77.4,1.7-6,5.3-12,6.2-18.3.6-.5,9.1,1.6,10.2,2.2s5.1,4.7,5.4,5.1Z"/>
  <path class="st1" d="M220.9,151.1c2.1,2.5-2.1,4.5-2.6,5.3s0,1.9-1,2.7-5.9,3.3-6.3,3.5c-6.4,2.1-5.7-1.6-10.4-3.7-17.3-7.9-38.4-10.9-56.6-15.4-4.1-1-9.5-3.4-13.6-4.4s-23.5-.5-20.2-9.5,11.1-.8,14-.3c26.8,4.6,57.3,11.7,83.8,18.2,1.8.4,12.5,3.1,12.9,3.6Z"/>
  <path class="st1" d="M103,284c-.5,9.6.4,19.4,0,29h-5v-40l7.8.2,12.7,31.8,11.6-31.9h7.9c0-.1,0,39.9,0,39.9h-5v-31l-11.1,28.4c-.9,3.4-4.4,5.6-6.7,1.9-3.7-5.9-7.4-20.9-10.2-28.3s-.2-2.8-2-3c0,1,0,2,0,3Z"/>
  <path class="st1" d="M229,273c2.5.2,5.5-.8,7.5,1l19.5,30v-31h6v41c-2.4,0-5.3.7-7-1.5l-20-30.5v32c-1.4.3-6,0-6-1.5v-39.5Z"/>
  <path class="st1" d="M64.7,272.2c34.4-7,31.9,51.3-1.8,41.3-16.9-5-16.7-37.5,1.8-41.3ZM65.7,277.2c-13.5,3.1-13.6,36.6,8.6,31.6s13.4-36.6-8.6-31.6Z"/>
  <path class="st1" d="M364,285c-8.1,1.1-4.8-1.1-7.5-5-5.4-7.5-21.6-1.2-15.6,6.6,3.2,4,21.5,2.9,23.9,11.1,6.1,20.9-33.2,23-31.8,2.3,6.9-1.4,4.4,2.4,7.4,6.1,4.8,5.7,22.2,4.4,18.4-6.4s-26.3-2.3-24.9-17.2,30.5-14.2,30,2.5Z"/>
  <path class="st1" d="M323,273v5h-22v12h21v5h-21v13h21.5c2,0,2,6,0,6h-26c-.1,0-1.5-1.4-1.5-1.5v-39.5h28Z"/>
  <path class="st1" d="M41,286c-9,2.4-5.1-6.1-12.2-8.3-21.8-6.9-22.7,28-9.1,31.1,7.2,1.7,12.1,0,14.8-6.8s-1.4-4.5,6.5-4c.3,17.4-24,22.2-32.8,8.3s-4.6-21.3,1.4-28.3c9.3-10.9,30-7.4,31.4,7.9Z"/>
  <path class="st1" d="M158,297v17h-6v-41h22.5c.6,0,5.3,3,6,4,2.8,4.4,2.7,13-1,16.9s-5.3,3-6,3h-15.5ZM172.5,278c-4.3-.7-10,.5-14.5,0v14c4-.4,8.6.5,12.4,0,8.6-1.3,6.9-13.1,2.1-13.9Z"/>
  <path class="st1" d="M221,314c-9.7,2.4-7.3-7.7-10.9-12.4s-14.6-1.1-16.1-.1c-3.9,2.3-1.9,16.1-11,12.5l15.1-40.9c2.1-.2,6-.8,7.4.9l15.5,40ZM208,296c-2.1-5.4-3.3-12.7-7-17l-6,17h13Z"/>
  <rect class="st1" x="276" y="273" width="5" height="40"/>
  <path class="st0" d="M105,284h-2c0-1,0-2,0-3,1.8.2,1.6,1.9,2,3Z"/>
</svg>