<?xml version="1.0" encoding="UTF-8"?><svg id="a" xmlns="http://www.w3.org/2000/svg" viewBox="0 0 408.58 86.5"><polygon points="0 80.05 15.56 0 43.01 62.96 71.38 0 87.21 80.02 77.71 80.02 68.04 28.45 45.73 78.93 48.8 84.77 44.72 86.47 42.81 79.48 40.83 86.5 36.68 84.42 40.24 78.64 19.24 28.85 9.11 80.06 0 80.05" style="fill:#2d2b29;"/><polygon points="85.44 3.46 95.73 3.46 117.49 62.02 139.06 3.86 148.55 3.86 117.49 84.97 85.44 3.46" style="fill:#2d2b29;"/><path d="M174.72,77.41v2.79h-23.72v-44.08h2.92v41.29h20.8Z" style="fill:#2d2b29;"/><path d="M198.71,58.16c0-13.6,10.49-22.66,22.1-22.66s22.17,9.06,22.17,22.66-10.49,22.66-22.17,22.66-22.1-9.07-22.1-22.66ZM240,58.16c0-12.05-9.19-19.81-19.18-19.81s-19.19,7.76-19.19,19.81,9.25,19.81,19.19,19.81,19.18-7.76,19.18-19.81Z" style="fill:#2d2b29;"/><path d="M280.29,38.73v18h17.88v2.55h-17.88v20.92h-2.92v-44.08h22.91v2.61h-19.99Z" style="fill:#2d2b29;"/><path d="M355.75,38.91h-12.48v41.29h-2.92v-41.29h-12.48v-2.79h27.88v2.79Z" style="fill:#2d2b29;"/><path d="M381.02,70.21l2.48-1.12c1.24,5.46,5.9,8.88,11.8,8.88,5.59,0,10.31-3.1,10.31-9s-4.16-8.01-9.87-10.24l-2.98-1.18c-6.77-2.67-9.87-6.52-9.87-11.49,0-6.33,5.09-10.55,11.92-10.55s11.05,4.28,12.6,9.06l-2.36,1.12c-1.68-4.35-4.84-7.39-10.18-7.39s-9,2.98-9,7.76c0,3.79,2.24,6.71,7.82,8.88l2.98,1.18c6.77,2.73,11.92,5.71,11.92,12.85,0,7.58-6.02,11.86-13.35,11.86s-12.85-4.28-14.22-10.62Z" style="fill:#2d2b29;"/></svg>