<?xml version="1.0" encoding="UTF-8"?><svg id="a" xmlns="http://www.w3.org/2000/svg" viewBox="0 0 226.45 226.45"><polygon points="38.95 131.49 54.51 51.44 81.96 114.39 110.32 51.44 126.15 131.46 116.66 131.46 106.98 79.89 84.68 130.37 87.74 136.2 83.67 137.91 81.76 130.91 79.78 137.94 75.63 135.86 79.19 130.07 58.18 80.29 48.05 131.49 38.95 131.49" style="fill:#e8e3db;"/><polygon points="124.39 54.9 134.68 54.9 156.44 113.45 178 55.29 187.5 55.29 156.44 136.4 124.39 54.9" style="fill:#e8e3db;"/><path d="M52.64,173.04v1.61h-13.67v-25.42h1.68v23.8h11.99Z" style="fill:#e8e3db;"/><path d="M66.47,161.95c0-7.84,6.05-13.07,12.74-13.07s12.78,5.23,12.78,13.07-6.05,13.07-12.78,13.07-12.74-5.23-12.74-13.07ZM90.28,161.95c0-6.94-5.3-11.42-11.06-11.42s-11.06,4.47-11.06,11.42,5.33,11.42,11.06,11.42,11.06-4.47,11.06-11.42Z" style="fill:#e8e3db;"/><path d="M113.51,150.74v10.38h10.31v1.47h-10.31v12.06h-1.68v-25.42h13.21v1.5h-11.53Z" style="fill:#e8e3db;"/><path d="M157.02,150.85h-7.19v23.8h-1.68v-23.8h-7.19v-1.61h16.07v1.61Z" style="fill:#e8e3db;"/><path d="M171.58,168.89l1.43-.64c.72,3.15,3.4,5.12,6.8,5.12,3.22,0,5.94-1.79,5.94-5.19s-2.4-4.62-5.69-5.91l-1.72-.68c-3.9-1.54-5.69-3.76-5.69-6.62,0-3.65,2.93-6.09,6.87-6.09s6.37,2.47,7.27,5.23l-1.36.64c-.97-2.51-2.79-4.26-5.87-4.26s-5.19,1.72-5.19,4.47c0,2.18,1.29,3.87,4.51,5.12l1.72.68c3.9,1.57,6.87,3.29,6.87,7.41,0,4.37-3.47,6.84-7.7,6.84s-7.41-2.47-8.2-6.12Z" style="fill:#e8e3db;"/><polygon points="226.2 .25 226.2 226.2 .25 226.2 .25 147.34 3.25 147.34 3.25 223.2 223.2 223.2 223.2 3.25 147.86 3.25 147.86 .25 226.2 .25" style="fill:#e8e3db;"/></svg>